<?xml version="1.0" standalone="no"?><!DOCTYPE svg PUBLIC "-//W3C//DTD SVG 1.1//EN" "http://www.w3.org/Graphics/SVG/1.1/DTD/svg11.dtd"><svg t="1534840761990" class="icon" style="" viewBox="0 0 1024 1024" version="1.1" xmlns="http://www.w3.org/2000/svg" p-id="3260" xmlns:xlink="http://www.w3.org/1999/xlink" width="200" height="200"><defs><style type="text/css"></style></defs><path d="M810.752 0H213.248A213.76 213.76 0 0 0 0 213.248v597.504A213.76 213.76 0 0 0 213.248 1024H640a42.496 42.496 0 1 0 0-85.248H213.248a128 128 0 0 1-128-128V213.248a128 128 0 0 1 128-128h597.504a128 128 0 0 1 128 128V640A42.496 42.496 0 0 0 1024 640V213.248A213.504 213.504 0 0 0 810.752 0z" p-id="3261"></path><path d="M735.744 704.768a295.424 295.424 0 0 0 70.656-190.464 299.264 299.264 0 1 0-133.376 248.064l193.536 206.336a42.752 42.752 0 0 0 62.208-58.368zM294.4 514.304a213.248 213.248 0 1 1 213.248 213.248 213.504 213.504 0 0 1-213.248-213.248z" p-id="3262"></path></svg>