<?xml version="1.0" encoding="utf-8"?>
<!-- Generator: Adobe Illustrator 21.0.0, SVG Export Plug-In . SVG Version: 6.00 Build 0)  -->
<svg version="1.1" id="图层_1" xmlns="http://www.w3.org/2000/svg" xmlns:xlink="http://www.w3.org/1999/xlink" x="0px" y="0px"
	 viewBox="0 0 40 35.3" style="enable-background:new 0 0 40 35.3;" xml:space="preserve">
<style type="text/css">
	.st0{fill:#11A0F8;}
</style>
<title>工作助手</title>
<g id="left">
	<g id="Group">
		<g id="组-43">
			<g id="工作助手-对公业务管理_bl">
				<path id="Combined-Shape" class="st0" d="M25,19.2v1.4c0,1.4-1.2,2.6-2.7,2.6h-4.7c-1.4,0-2.6-1.1-2.7-2.6v-1.4H0v12.3
					c0,2.2,1.8,3.9,4,3.8h32c2.2,0,4-1.7,4-3.8V19.2H25z M36,6.4h-5.3c-0.4,0-0.7-0.3-0.7-0.6V2.6C30,1.1,28.8,0,27.3,0H12.7
					C11.2,0,10,1.1,10,2.6v3.2c0,0.4-0.3,0.6-0.7,0.6H4c-2.2,0-4,1.7-4,3.8v7.3h15v-1.3c0.1-1.4,1.2-2.6,2.7-2.5h4.7
					c1.4,0,2.6,1.1,2.7,2.5v1.4h15v-7.3C40,8.1,38.2,6.4,36,6.4z M26.7,5.8c0,0.4-0.3,0.6-0.7,0.6H14c-0.4,0-0.7-0.3-0.7-0.6V3.8
					c0-0.4,0.3-0.6,0.7-0.6h12c0.4,0,0.7,0.3,0.7,0.6V5.8z M21.6,21.2h-2.8c-0.5,0-0.9-0.4-0.9-0.9c0,0,0,0,0,0v-2.8
					c0-0.5,0.4-0.9,0.9-0.9c0,0,0,0,0,0h2.8c0.5,0,0.9,0.4,0.9,0.9c0,0,0,0,0,0v2.8C22.5,20.7,22.1,21.2,21.6,21.2
					C21.6,21.2,21.6,21.2,21.6,21.2z"/>
			</g>
		</g>
	</g>
</g>
</svg>
