<?xml version="1.0" standalone="no"?><!DOCTYPE svg PUBLIC "-//W3C//DTD SVG 1.1//EN" "http://www.w3.org/Graphics/SVG/1.1/DTD/svg11.dtd"><svg t="1533292743974" class="icon" style="" viewBox="0 0 1024 1024" version="1.1" xmlns="http://www.w3.org/2000/svg" p-id="3086" xmlns:xlink="http://www.w3.org/1999/xlink" width="400" height="400"><defs><style type="text/css"></style></defs><path d="M906.24 960H115.2C51.2 960 0 908.8 0 844.8V281.6c0-64 51.2-115.2 115.2-115.2H281.6c15.36 0 28.16 10.24 28.16 25.6 2.56 17.92-12.8 30.72-28.16 30.72H115.2c-33.28 0-58.88 25.6-58.88 58.88v563.2c0 33.28 25.6 58.88 58.88 58.88h791.04c15.36 0 30.72-5.12 40.96-17.92 10.24-10.24 17.92-25.6 17.92-40.96V281.6c0-33.28-25.6-58.88-58.88-58.88H742.4c-15.36 0-28.16-10.24-28.16-25.6-2.56-17.92 10.24-33.28 28.16-33.28h166.4c64 0 115.2 51.2 115.2 115.2v563.2c0 66.56-53.76 117.76-117.76 117.76z m0 0" fill="#ffffff" p-id="3087"></path><path d="M512 775.68c-12.8 0-23.04-7.68-28.16-23.04v-5.12V92.16c0-15.36 12.8-28.16 28.16-28.16 15.36 0 30.72 12.8 30.72 28.16v655.36c0 5.12 0 7.68-2.56 10.24-7.68 10.24-17.92 17.92-28.16 17.92z m0 0" fill="#ffffff" p-id="3088"></path><path d="M512 775.68c-7.68 0-15.36-2.56-20.48-7.68l-227.84-227.84c-10.24-10.24-10.24-28.16 2.56-38.4 10.24-10.24 28.16-10.24 38.4-2.56l227.84 227.84c7.68 7.68 10.24 20.48 5.12 30.72-5.12 10.24-15.36 17.92-25.6 17.92z m0 0" fill="#ffffff" p-id="3089"></path><path d="M512 775.68c-12.8 0-23.04-7.68-25.6-17.92-5.12-10.24-2.56-23.04 5.12-30.72l227.84-227.84c10.24-10.24 28.16-10.24 38.4 2.56 10.24 10.24 10.24 28.16 2.56 38.4L532.48 768c-5.12 2.56-12.8 7.68-20.48 7.68z m0 0" fill="#ffffff" p-id="3090"></path></svg>