<?xml version="1.0" standalone="no"?><!DOCTYPE svg PUBLIC "-//W3C//DTD SVG 1.1//EN" "http://www.w3.org/Graphics/SVG/1.1/DTD/svg11.dtd"><svg t="1537150140609" class="icon" style="" viewBox="0 0 1026 1024" version="1.1" xmlns="http://www.w3.org/2000/svg" p-id="4880" xmlns:xlink="http://www.w3.org/1999/xlink" width="200.390625" height="200"><defs><style type="text/css"></style></defs><path d="M163.24608 1018.51136c-84.72576 0-153.66144-68.93056-153.66144-153.66144V160.82944C9.58976 76.09856 78.52032 7.168 163.24608 7.168h425.82528c32.67584 0 59.25376 26.58304 59.25376 59.25376s-26.57792 59.25376-59.25376 59.25376H163.24608c-19.93728 0-36.16256 16.21504-36.16256 36.15744v704.01536c0 19.9424 16.22528 36.15744 36.16256 36.15744h704.02048c19.93216 0 36.16256-16.21504 36.16256-36.15744V470.15424c0-32.67072 26.5728-59.25376 59.24864-59.25376 16.31744 0 31.96416 6.66624 42.96704 18.28352 10.50624 11.10016 15.90784 25.47712 15.2832 40.56064v395.10528c0 84.73088-68.93568 153.66144-153.66144 153.66144H163.24608z" p-id="4881"></path><path d="M439.48032 614.30784a25.2928 25.2928 0 0 1-20.70016-10.71104 23.0656 23.0656 0 0 1-2.78528-21.39136l26.74176-82.304 474.74176-474.73664c10.97216-11.5456 26.0864-18.00704 42.37824-18.00704 16.19968 0 31.5136 6.39488 43.12576 18.00704 23.53152 23.52128 24.05888 62.25408 1.18784 86.32832l-474.91584 474.92096-82.64704 26.84928a25.1648 25.1648 0 0 1-7.12704 1.04448z" p-id="4882"></path></svg>