<?xml version="1.0" standalone="no"?><!DOCTYPE svg PUBLIC "-//W3C//DTD SVG 1.1//EN" "http://www.w3.org/Graphics/SVG/1.1/DTD/svg11.dtd"><svg t="1532662409649" class="icon" style="" viewBox="0 0 1026 1024" version="1.1" xmlns="http://www.w3.org/2000/svg" p-id="1766" xmlns:xlink="http://www.w3.org/1999/xlink" width="400.78125" height="400"><defs><style type="text/css"></style></defs><path d="M509.44 929.28c2.56 0 2.56 0 0 0z m419.84-627.2H458.24l-20.48-48.64c-12.8-28.16-48.64-48.64-76.8-48.64H94.72C35.84 204.8 0 238.08 0 294.4l2.56 81.92v5.12c-2.56 7.68-2.56 15.36-2.56 23.04v524.8C0 985.6 33.28 1024 94.72 1024h837.12c56.32 0 94.72-40.96 94.72-97.28V401.92c0-69.12-38.4-99.84-97.28-99.84z m-204.8 412.16c-64 69.12-130.56 140.8-197.12 209.92-7.68 7.68-12.8 7.68-15.36 7.68-2.56 0-10.24 2.56-17.92-7.68-81.92-89.6-133.12-145.92-194.56-209.92-25.6-25.6 20.48-25.6 25.6-25.6h115.2V424.96c0-15.36 10.24-25.6 25.6-25.6h92.16c12.8 0 28.16 12.8 28.16 25.6v263.68h115.2c2.56 0 48.64-2.56 23.04 25.6z" fill="#FFC62B" p-id="1767"></path></svg>