<?xml version="1.0" standalone="no"?><!DOCTYPE svg PUBLIC "-//W3C//DTD SVG 1.1//EN" "http://www.w3.org/Graphics/SVG/1.1/DTD/svg11.dtd"><svg t="1536246446737" class="icon" style="" viewBox="0 0 1024 1024" version="1.1" xmlns="http://www.w3.org/2000/svg" p-id="3180" xmlns:xlink="http://www.w3.org/1999/xlink" width="200" height="200"><defs><style type="text/css"></style></defs><path d="M421.782069 774.497103a277.821793 277.821793 0 0 1 350.278621-268.35862V262.708966L509.351724 0H159.073103A87.852138 87.852138 0 0 0 71.503448 87.569655v700.557242A87.852138 87.852138 0 0 0 159.073103 875.696552h281.847173a276.903724 276.903724 0 0 1-19.138207-101.199449zM465.566897 65.677241l240.816551 240.816552H465.566897z" p-id="3181" fill="#FFC62B"></path><path d="M708.925793 536.717241a243.570759 243.570759 0 1 0 243.570759 243.570759A243.570759 243.570759 0 0 0 708.925793 536.717241z m116.594759 265.886897H731.241931V896.882759a22.316138 22.316138 0 0 1-44.632276 0v-94.208H592.331034a22.316138 22.316138 0 0 1 0-44.632276H686.609655V663.834483a22.316138 22.316138 0 0 1 44.632276 0v94.27862h94.278621a22.316138 22.316138 0 1 1 0 44.632276z" p-id="3182" fill="#FFC62B"></path></svg>