<?xml version="1.0" standalone="no"?><!DOCTYPE svg PUBLIC "-//W3C//DTD SVG 1.1//EN" "http://www.w3.org/Graphics/SVG/1.1/DTD/svg11.dtd"><svg t="1536246485611" class="icon" style="" viewBox="0 0 1024 1024" version="1.1" xmlns="http://www.w3.org/2000/svg" p-id="3354" xmlns:xlink="http://www.w3.org/1999/xlink" width="200" height="200"><defs><style type="text/css"></style></defs><path d="M197.417714 197.985824h14.372837a37.010054 37.010054 0 0 0 20.840613-8.336245 31.045327 31.045327 0 0 0 8.336245-18.756552v-143.728366a26.446019 26.446019 0 0 0-8.336245-18.756552A31.835833 31.835833 0 0 0 212.006143 0h-14.372836a37.010054 37.010054 0 0 0-20.840613 8.336245 31.045327 31.045327 0 0 0-8.336245 18.756552v141.716169a26.446019 26.446019 0 0 0 8.336245 18.756551 25.368057 25.368057 0 0 0 20.62502 10.420307zM637.154649 197.985824h14.372837a37.010054 37.010054 0 0 0 20.840613-8.336245 31.045327 31.045327 0 0 0 8.336245-18.756552v-143.728366a26.446019 26.446019 0 0 0-8.336245-18.756552A31.835833 31.835833 0 0 0 651.743078 0h-14.372836a37.010054 37.010054 0 0 0-20.840613 8.336245 31.045327 31.045327 0 0 0-8.336245 18.756552v141.716169a26.446019 26.446019 0 0 0 8.336245 18.756551A23.068403 23.068403 0 0 0 637.154649 197.985824zM764.210525 528.273608A247.859567 247.859567 0 1 0 1012.070091 776.133175a247.859567 247.859567 0 0 0-247.859566-247.859567z m118.647765 270.568649h-95.938684v95.938684a22.709082 22.709082 0 0 1-45.418163 0v-95.938684H645.562759a22.709082 22.709082 0 0 1 0-45.418164h95.938684V657.485409a22.709082 22.709082 0 0 1 45.418163 0v95.938684h95.938684a22.709082 22.709082 0 0 1 0 45.418164z" p-id="3355" fill="#55CE63"></path><path d="M643.622426 520.440412v-14.013515a39.597165 39.597165 0 0 1 10.204714-27.092797 37.369375 37.369375 0 0 1 27.092797-10.420307h35.429042a39.597165 39.597165 0 0 1 27.092797 10.420307 33.991758 33.991758 0 0 1 7.833196 12.360639c5.892863-0.359321 11.785726-0.646778 17.750453-0.646777a283.144881 283.144881 0 0 1 68.199109 8.336245V152.136475a72.223504 72.223504 0 0 0-22.924674-54.185594 66.043184 66.043184 0 0 0-51.957804-25.008735h-58.497445v106.287126a54.401186 54.401186 0 0 1-14.372837 35.429042 48.79578 48.79578 0 0 1-35.429042 14.372837h-14.372836a53.466952 53.466952 0 0 1-37.513104-14.372837 62.162518 62.162518 0 0 1-16.67249-35.429042V72.942146H266.479194v106.287126a45.70562 45.70562 0 0 1-14.372837 35.429042 48.79578 48.79578 0 0 1-35.429042 14.372837H199.501776a45.70562 45.70562 0 0 1-35.429043-14.372837 43.11851 43.11851 0 0 1-14.372836-35.429042V72.942146h-62.88116A76.535355 76.535355 0 0 0 11.936258 150.052414v606.461839a72.223504 72.223504 0 0 0 22.924675 54.185594 75.672985 75.672985 0 0 0 54.185593 22.924674h403.73298a282.641831 282.641831 0 0 1 150.914784-313.184109zM647.359363 352.134496a41.824954 41.824954 0 0 1 41.681226-41.681226h35.429042a39.597165 39.597165 0 0 1 27.092797 10.420307 37.369375 37.369375 0 0 1 10.779628 27.164661l2.084061 12.504367a41.824954 41.824954 0 0 1-41.681226 41.681227h-37.656832a39.597165 39.597165 0 0 1-27.092797-10.420307 37.369375 37.369375 0 0 1-10.635899-27.092797zM205.753959 677.319924a41.393769 41.393769 0 0 1-41.681226 39.597164h-35.429042a44.555793 44.555793 0 0 1-41.824954-39.597164v-12.504368A41.393769 41.393769 0 0 1 128.643691 625.218391h35.429042a44.555793 44.555793 0 0 1 41.681226 39.597165z m-41.681226-118.791495h-35.429042a44.555793 44.555793 0 0 1-41.824954-39.597164v-12.504368A41.393769 41.393769 0 0 1 128.643691 467.117189h35.429042a39.597165 39.597165 0 0 1 27.092797 10.420306 37.369375 37.369375 0 0 1 10.635899 26.80534l4.168123 14.372837a41.393769 41.393769 0 0 1-41.896819 39.812757z m41.681226-197.985824a41.824954 41.824954 0 0 1-41.681226 41.681227h-35.429042a39.597165 39.597165 0 0 1-27.452118-10.420307 39.022251 39.022251 0 0 1-10.420306-29.176858v-12.504368a41.824954 41.824954 0 0 1 41.681226-41.681226h35.429042a41.824954 41.824954 0 0 1 41.681226 41.681226z m258.711059-8.336245a41.824954 41.824954 0 0 1 41.681226-41.681226h37.513103a39.597165 39.597165 0 0 1 27.092797 10.420307 37.369375 37.369375 0 0 1 10.420307 27.092797v12.504367A41.824954 41.824954 0 0 1 539.563089 402.439424h-37.872424a39.597165 39.597165 0 0 1-26.805341-10.635899 37.369375 37.369375 0 0 1-10.420306-27.092797zM389.151354 677.319924a41.393769 41.393769 0 0 1-41.681226 39.597164h-37.872424a44.555793 44.555793 0 0 1-41.681226-39.597164v-12.504368a41.393769 41.393769 0 0 1 41.681226-39.597165h37.513103a44.555793 44.555793 0 0 1 41.681226 39.597165z m-41.681226-118.791495h-37.872424a44.555793 44.555793 0 0 1-41.681226-39.597164v-12.504368a39.597165 39.597165 0 0 1 10.779627-27.092797 37.369375 37.369375 0 0 1 27.092797-10.420307h37.513103a39.597165 39.597165 0 0 1 27.092797 10.420307 37.369375 37.369375 0 0 1 10.420307 27.092797v12.504368h8.336245a41.393769 41.393769 0 0 1-41.681226 39.597164z m41.681226-197.985824a41.824954 41.824954 0 0 1-41.681226 41.681227h-37.872424a39.597165 39.597165 0 0 1-27.092797-10.420307 37.369375 37.369375 0 0 1-10.420307-27.092797V352.134496a41.824954 41.824954 0 0 1 41.681226-41.681226h37.513104a39.597165 39.597165 0 0 1 27.092797 10.420307 37.369375 37.369375 0 0 1 10.420306 27.092796z m70.858084 158.101203v-12.216911a39.597165 39.597165 0 0 1 10.420307-27.092797 37.369375 37.369375 0 0 1 27.092797-10.420307h37.513103a39.597165 39.597165 0 0 1 27.092797 10.420307 37.369375 37.369375 0 0 1 10.420307 27.092797v12.504368h8.336245a41.393769 41.393769 0 0 1-41.321905 39.597164h-37.872424a44.555793 44.555793 0 0 1-41.681227-39.597164z" p-id="3356" fill="#55CE63"></path></svg>