<?xml version="1.0" standalone="no"?><!DOCTYPE svg PUBLIC "-//W3C//DTD SVG 1.1//EN" "http://www.w3.org/Graphics/SVG/1.1/DTD/svg11.dtd"><svg t="1532662724598" class="icon" style="" viewBox="0 0 1024 1024" version="1.1" xmlns="http://www.w3.org/2000/svg" p-id="2284" xmlns:xlink="http://www.w3.org/1999/xlink" width="400" height="400"><defs><style type="text/css"></style></defs><path d="M773.12 243.2h17.92c10.24 0 17.92-5.12 25.6-10.24 5.12-5.12 10.24-15.36 10.24-23.04V33.28c0-10.24-5.12-17.92-10.24-23.04-5.12-5.12-15.36-10.24-25.6-10.24h-17.92c-10.24 0-17.92 5.12-25.6 10.24-5.12 5.12-10.24 15.36-10.24 23.04v174.08c0 10.24 5.12 17.92 10.24 23.04 5.12 10.24 15.36 12.8 25.6 12.8zM232.96 243.2h17.92c10.24 0 17.92-5.12 25.6-10.24 5.12-5.12 10.24-15.36 10.24-23.04V33.28c0-10.24-5.12-17.92-10.24-23.04-5.12-5.12-15.36-10.24-25.6-10.24h-17.92c-10.24 0-17.92 5.12-25.6 10.24-5.12 5.12-10.24 15.36-10.24 23.04v174.08c0 10.24 5.12 17.92 10.24 23.04 7.68 10.24 17.92 12.8 25.6 12.8z" fill="#26C6DA" p-id="2285"></path><path d="M993.28 117.76c-17.92-17.92-40.96-28.16-66.56-28.16h-71.68v130.56c0 15.36-7.68 33.28-17.92 43.52-12.8 12.8-28.16 17.92-43.52 17.92h-17.92c-15.36 0-33.28-5.12-46.08-17.92-12.8-12.8-17.92-28.16-20.48-43.52V89.6H314.88v130.56c0 15.36-5.12 33.28-17.92 43.52-12.8 12.8-28.16 17.92-43.52 17.92h-17.92c-15.36 0-33.28-5.12-43.52-17.92-12.8-10.24-17.92-25.6-17.92-43.52V89.6h-76.8C46.08 92.16 5.12 130.56 5.12 184.32v744.96c0 25.6 10.24 51.2 28.16 66.56 17.92 17.92 40.96 28.16 66.56 28.16h824.32c25.6 0 51.2-10.24 66.56-28.16 17.92-17.92 28.16-40.96 28.16-66.56v-742.4c2.56-25.6-7.68-51.2-25.6-69.12zM514.56 901.12c-143.36 0-261.12-115.2-261.12-261.12s115.2-261.12 261.12-261.12S775.68 496.64 775.68 640s-117.76 261.12-261.12 261.12z" fill="#26C6DA" p-id="2286"></path><path d="M437.76 775.68c5.12 5.12 15.36 10.24 23.04 7.68 7.68 0 17.92-5.12 23.04-12.8 5.12-2.56 12.8-5.12 15.36-7.68l181.76-181.76c5.12-5.12 10.24-12.8 10.24-23.04s-5.12-15.36-10.24-23.04c-12.8-12.8-33.28-12.8-43.52 0l-179.2 176.64-69.12-69.12c-12.8-12.8-33.28-12.8-43.52 0-5.12 5.12-7.68 12.8-7.68 23.04s5.12 15.36 7.68 23.04l92.16 87.04z" fill="#26C6DA" p-id="2287"></path></svg>