<?xml version="1.0" standalone="no"?><!DOCTYPE svg PUBLIC "-//W3C//DTD SVG 1.1//EN" "http://www.w3.org/Graphics/SVG/1.1/DTD/svg11.dtd"><svg t="1536246513725" class="icon" style="" viewBox="0 0 1024 1024" version="1.1" xmlns="http://www.w3.org/2000/svg" p-id="3533" xmlns:xlink="http://www.w3.org/1999/xlink" width="200" height="200"><defs><style type="text/css"></style></defs><path d="M679.977 0.157v0.93c-4.32 0-22.252-1.58-67.173-0.93H209.679c-74.187 0-134.391 57.324-134.391 127.981v767.881c0 70.656 60.205 127.981 134.39 127.981h604.69c74.14 0 134.345-57.325 134.345-127.98V256.118L679.977 0.157z m33.54 767.928H310.483c-18.583 0-33.633-14.308-33.633-32.007 0-17.698 15.05-32.007 33.633-32.007h403.032c18.628 0 33.633 14.309 33.633 32.007 0 17.7-15.005 32.007-33.633 32.007z m0-191.993H310.483c-18.583 0-33.633-14.308-33.633-32.007 0-17.652 15.05-32.007 33.633-32.007h403.032c18.628 0 33.633 14.355 33.633 32.007 0 17.7-15.005 32.007-33.633 32.007z m33.632-319.973c-37.07 0-67.172-28.663-67.172-63.967V64.124l201.516 191.994H747.15z" p-id="3534" fill="#26C6DA"></path></svg>