<?xml version="1.0" standalone="no"?><!DOCTYPE svg PUBLIC "-//W3C//DTD SVG 1.1//EN" "http://www.w3.org/Graphics/SVG/1.1/DTD/svg11.dtd"><svg t="1532662644168" class="icon" style="" viewBox="0 0 1024 1024" version="1.1" xmlns="http://www.w3.org/2000/svg" p-id="1959" xmlns:xlink="http://www.w3.org/1999/xlink" width="400" height="400"><defs><style type="text/css"></style></defs><path d="M780.8 640c-33.28 0-58.88 25.6-58.88 61.44 0 33.28 25.6 61.44 58.88 61.44 33.28 0 58.88-28.16 58.88-61.44 0-30.72-28.16-61.44-58.88-61.44z" fill="#11A0F8" p-id="1960"></path><path d="M808.96 514.56c-117.76 0-215.04 97.28-215.04 217.6 2.56 120.32 97.28 220.16 215.04 220.16s215.04-99.84 215.04-220.16c0-120.32-94.72-217.6-215.04-217.6zM908.8 844.8c-2.56 0-5.12-2.56-10.24-5.12L826.88 768l-5.12 2.56c-12.8 7.68-28.16 12.8-43.52 12.8-43.52 0-84.48-38.4-84.48-87.04 0-46.08 35.84-84.48 84.48-84.48s84.48 38.4 84.48 84.48c0 15.36-2.56 28.16-10.24 43.52l-2.56 5.12 71.68 71.68c2.56 2.56 5.12 5.12 5.12 10.24-2.56 12.8-10.24 17.92-17.92 17.92z" fill="#11A0F8" p-id="1961"></path><path d="M537.6 727.04c0-140.8 112.64-253.44 250.88-253.44 20.48 0 43.52 2.56 64 7.68l10.24 2.56-2.56-404.48c0-25.6-28.16-56.32-53.76-56.32H53.76C28.16 23.04 0 53.76 0 79.36v844.8c0 25.6 28.16 64 53.76 64h719.36l-56.32-17.92c-104.96-30.72-179.2-130.56-179.2-243.2zM186.88 256h491.52c15.36 0 28.16 10.24 28.16 28.16 0 15.36-10.24 28.16-28.16 28.16H184.32c-15.36 0-25.6-12.8-25.6-28.16 0-17.92 10.24-28.16 28.16-28.16z m-2.56 174.08h401.92c15.36 0 28.16 10.24 28.16 28.16 0 15.36-10.24 28.16-28.16 28.16H184.32c-15.36 0-28.16-10.24-28.16-28.16 2.56-12.8 12.8-28.16 28.16-28.16z m286.72 225.28c-5.12 5.12-10.24 7.68-20.48 7.68H184.32c-15.36 0-28.16-10.24-28.16-28.16 2.56-17.92 12.8-28.16 28.16-28.16h266.24c15.36 0 28.16 10.24 28.16 28.16 2.56 7.68 0 15.36-7.68 20.48z" fill="#11A0F8" p-id="1962"></path></svg>