<?xml version="1.0" standalone="no"?><!DOCTYPE svg PUBLIC "-//W3C//DTD SVG 1.1//EN" "http://www.w3.org/Graphics/SVG/1.1/DTD/svg11.dtd"><svg t="1533292776918" class="icon" style="" viewBox="0 0 1026 1024" version="1.1" xmlns="http://www.w3.org/2000/svg" p-id="1646" xmlns:xlink="http://www.w3.org/1999/xlink" width="400.78125" height="400"><defs><style type="text/css"></style></defs><path d="M416.239401 260.468828c-17.875312 0-33.197007 15.321696-33.197007 33.197007v319.201995c0 17.875312 15.321696 33.197007 33.197007 33.197008h319.201996c17.875312 0 33.197007-15.321696 33.197007-33.197008s-15.321696-33.197007-33.197007-33.197007h-240.039901L962.713217 104.698254c12.76808-15.321696 12.76808-35.750623 0-48.518703-15.321696-12.76808-35.750623-12.76808-48.518703 0L449.436409 531.15212v-240.039901c0-17.875312-15.321696-30.643392-33.197008-30.643391z m523.491272 168.538653" fill="#ffffff" p-id="1647"></path><path d="M990.802993 579.670823c-17.875312 0-33.197007 15.321696-33.197008 33.197007v319.201995c0 17.875312-15.321696 33.197007-33.197007 33.197008H97.037406c-17.875312 0-33.197007-15.321696-33.197007-33.197008V99.591022c0-17.875312 15.321696-33.197007 33.197007-33.197007h319.201995c17.875312 0 33.197007-15.321696 33.197008-33.197008 0-17.875312-15.321696-33.197007-33.197008-33.197007H66.394015C30.643392 0 2.553616 28.089776 2.553616 63.840399v893.765586c0 35.750623 28.089776 63.840399 63.840399 63.840399h893.765586c35.750623 0 63.840399-28.089776 63.840399-63.840399V610.314214c0-15.321696-15.321696-30.643392-33.197007-30.643391z m0 0" fill="#ffffff" p-id="1648"></path></svg>