<?xml version="1.0" standalone="no"?><!DOCTYPE svg PUBLIC "-//W3C//DTD SVG 1.1//EN" "http://www.w3.org/Graphics/SVG/1.1/DTD/svg11.dtd"><svg t="1534840755816" class="icon" style="" viewBox="0 0 1024 1024" version="1.1" xmlns="http://www.w3.org/2000/svg" p-id="3151" xmlns:xlink="http://www.w3.org/1999/xlink" width="200" height="200"><defs><style type="text/css"></style></defs><path d="M874.195197 150.008312A511.973761 511.973761 0 1 1 511.973761 0a511.973761 511.973761 0 0 1 362.221436 150.008312z m-189.174304 195.573977a59.90093 59.90093 0 1 0 59.90093 59.90093 59.90093 59.90093 0 0 0-59.90093-59.90093z m-319.215641 119.80186a59.90093 59.90093 0 1 0-59.90093-59.90093 59.90093 59.90093 0 0 0 59.90093 59.90093z m146.168509 133.113178a240.627668 240.627668 0 0 0-201.461675 111.098306 31.230399 31.230399 0 0 0 25.598688 48.381521h2.303882a29.694478 29.694478 0 0 0 25.598688-13.055331 177.398908 177.398908 0 0 1 297.968729 0 29.694478 29.694478 0 0 0 25.598688 13.055331h1.535922a31.230399 31.230399 0 0 0 25.598688-48.381521A240.627668 240.627668 0 0 0 511.973761 598.497327z" p-id="3152"></path></svg>