<?xml version="1.0" standalone="no"?><!DOCTYPE svg PUBLIC "-//W3C//DTD SVG 1.1//EN" "http://www.w3.org/Graphics/SVG/1.1/DTD/svg11.dtd"><svg t="1533268162260" class="icon" style="" viewBox="0 0 1024 1024" version="1.1" xmlns="http://www.w3.org/2000/svg" p-id="2290" xmlns:xlink="http://www.w3.org/1999/xlink" width="400" height="400"><defs><style type="text/css"></style></defs><path d="M323.032419 413.685786V206.842893c0-51.072319 40.857855-94.483791 94.48379-94.483791h188.967582c51.072319 0 94.483791 40.857855 94.48379 94.483791v206.842893h112.359102V206.842893c0-114.912718-91.930175-206.842893-206.842892-206.842893h-188.967582c-114.912718 0-206.842893 91.930175-206.842892 206.842893v206.842893h112.359102zM836.309227 413.685786H187.690773c-68.947631 0-125.127182 56.179551-125.127182 125.127182 0 344.738155 201.735661 485.187032 441.775561 485.187032 222.164589 0 457.097257-117.466334 457.097257-485.187032 0-71.501247-56.179551-125.127182-125.127182-125.127182zM557.965087 725.226933v97.037406h-91.930174v-97.037406c-25.53616-15.321696-40.857855-43.411471-40.857856-74.054863 0-48.518703 40.857855-89.376559 89.376559-89.376559s89.376559 40.857855 89.376559 89.376559c-5.107232 30.643392-20.428928 58.733167-45.965088 74.054863z" p-id="2291"></path></svg>