<?xml version="1.0" standalone="no"?><!DOCTYPE svg PUBLIC "-//W3C//DTD SVG 1.1//EN" "http://www.w3.org/Graphics/SVG/1.1/DTD/svg11.dtd"><svg t="1532678718752" class="icon" style="" viewBox="0 0 1024 1024" version="1.1" xmlns="http://www.w3.org/2000/svg" p-id="2141" xmlns:xlink="http://www.w3.org/1999/xlink" width="400" height="400"><defs><style type="text/css"></style></defs><path d="M773.12 243.2h17.92c10.24 0 17.92-5.12 25.6-10.24 5.12-5.12 10.24-15.36 10.24-23.04V33.28c0-10.24-5.12-17.92-10.24-23.04-5.12-5.12-15.36-10.24-25.6-10.24h-17.92c-10.24 0-17.92 5.12-25.6 10.24-5.12 5.12-10.24 15.36-10.24 23.04v174.08c0 10.24 5.12 17.92 10.24 23.04 7.68 10.24 15.36 12.8 25.6 12.8z m-540.16 0h17.92c10.24 0 17.92-5.12 25.6-10.24 5.12-5.12 10.24-15.36 10.24-23.04V33.28c0-10.24-5.12-17.92-10.24-23.04-5.12-5.12-15.36-10.24-25.6-10.24h-17.92c-10.24 0-17.92 5.12-25.6 10.24-5.12 5.12-10.24 15.36-10.24 23.04v174.08c0 10.24 5.12 17.92 10.24 23.04 7.68 10.24 17.92 12.8 25.6 12.8z" fill="" p-id="2142"></path><path d="M926.72 89.6h-71.68v130.56c0 15.36-7.68 33.28-17.92 43.52-12.8 12.8-28.16 17.92-43.52 17.92h-17.92c-15.36 0-33.28-5.12-46.08-17.92-12.8-12.8-17.92-28.16-20.48-43.52V89.6H317.44v130.56c0 15.36-5.12 33.28-17.92 43.52-12.8 12.8-28.16 17.92-43.52 17.92h-20.48c-15.36 0-33.28-5.12-43.52-17.92-12.8-10.24-17.92-25.6-17.92-43.52V89.6h-76.8C46.08 92.16 5.12 130.56 5.12 184.32v744.96c0 25.6 10.24 51.2 28.16 66.56 17.92 17.92 40.96 28.16 66.56 28.16h824.32c25.6 0 51.2-10.24 66.56-28.16 17.92-17.92 28.16-40.96 28.16-66.56v-742.4c0-25.6-10.24-51.2-28.16-66.56-15.36-20.48-40.96-30.72-64-30.72z m-683.52 742.4c0 25.6-23.04 48.64-51.2 48.64H148.48c-25.6 0-48.64-23.04-51.2-48.64v-15.36c0-25.6 23.04-48.64 51.2-48.64h43.52c25.6 0 48.64 23.04 51.2 48.64v15.36z m0-194.56c0 25.6-23.04 48.64-51.2 48.64H148.48c-25.6 0-48.64-23.04-51.2-48.64v-15.36c0-25.6 23.04-48.64 51.2-48.64h43.52c12.8 0 25.6 5.12 33.28 12.8 10.24 10.24 12.8 23.04 12.8 33.28l5.12 17.92z m0-194.56c0 28.16-23.04 51.2-51.2 51.2H148.48c-12.8 0-25.6-5.12-33.28-12.8-10.24-10.24-12.8-23.04-12.8-35.84v-15.36c0-28.16 23.04-51.2 51.2-51.2h43.52c28.16 0 51.2 23.04 51.2 51.2l-5.12 12.8z m225.28 389.12c0 25.6-23.04 48.64-51.2 48.64h-46.08c-25.6 0-48.64-23.04-51.2-48.64v-15.36c0-25.6 23.04-48.64 51.2-48.64h46.08c25.6 0 48.64 23.04 51.2 48.64v15.36z m0-194.56c0 25.6-23.04 48.64-51.2 48.64h-46.08c-25.6 0-48.64-23.04-51.2-48.64v-15.36c0-12.8 5.12-25.6 12.8-33.28 10.24-10.24 23.04-12.8 33.28-12.8h46.08c12.8 0 25.6 5.12 33.28 12.8 10.24 10.24 12.8 23.04 12.8 33.28v15.36h10.24z m0-194.56c0 28.16-23.04 51.2-51.2 51.2h-46.08c-12.8 0-25.6-5.12-33.28-12.8-10.24-10.24-12.8-23.04-12.8-33.28v-15.36c0-28.16 23.04-51.2 51.2-51.2h46.08c12.8 0 25.6 5.12 33.28 12.8 10.24 10.24 12.8 23.04 12.8 33.28v15.36z m235.52 194.56c0 25.6-23.04 48.64-51.2 48.64h-46.08c-25.6 0-48.64-23.04-51.2-48.64v-15.36c0-12.8 5.12-25.6 12.8-33.28 10.24-10.24 23.04-12.8 33.28-12.8h46.08c12.8 0 25.6 5.12 33.28 12.8 10.24 10.24 12.8 23.04 12.8 33.28v15.36h10.24z m0-194.56c0 28.16-23.04 51.2-51.2 51.2h-46.08c-12.8 0-25.6-5.12-33.28-12.8-10.24-10.24-12.8-23.04-12.8-33.28v-15.36c0-28.16 23.04-51.2 51.2-51.2h46.08c12.8 0 25.6 5.12 33.28 12.8 10.24 10.24 12.8 23.04 12.8 33.28v15.36z m225.28 194.56c0 25.6-23.04 48.64-51.2 48.64h-46.08c-25.6 0-48.64-23.04-51.2-48.64v-15.36c0-12.8 5.12-25.6 12.8-33.28 10.24-10.24 23.04-12.8 33.28-12.8H870.4c12.8 0 25.6 5.12 33.28 12.8 10.24 10.24 12.8 23.04 12.8 33.28l12.8 15.36z m0-194.56c0 28.16-23.04 51.2-51.2 51.2h-46.08c-12.8 0-25.6-5.12-33.28-12.8-10.24-10.24-12.8-23.04-12.8-33.28v-15.36c0-28.16 23.04-51.2 51.2-51.2h43.52c12.8 0 25.6 5.12 33.28 12.8 10.24 10.24 12.8 23.04 12.8 33.28l2.56 15.36z" fill="" p-id="2143"></path></svg>