<?xml version="1.0" standalone="no"?><!DOCTYPE svg PUBLIC "-//W3C//DTD SVG 1.1//EN" "http://www.w3.org/Graphics/SVG/1.1/DTD/svg11.dtd"><svg t="1532680412223" class="icon" style="" viewBox="0 0 1024 1024" version="1.1" xmlns="http://www.w3.org/2000/svg" p-id="1772" xmlns:xlink="http://www.w3.org/1999/xlink" width="400" height="400"><defs><style type="text/css"></style></defs><path d="M358.4 460.8h-102.4v102.4h102.4v-102.4z m204.8 0h-102.4v102.4h102.4v-102.4z m204.8 0h-102.4v102.4h102.4v-102.4z m102.4-358.4h-51.2V0h-102.4v102.4H307.2V0H204.8v102.4H153.6C97.28 102.4 51.2 148.48 51.2 204.8v716.8c0 56.32 46.08 102.4 102.4 102.4h716.8c56.32 0 102.4-46.08 102.4-102.4V204.8c0-56.32-46.08-102.4-102.4-102.4z m0 819.2H153.6V358.4h716.8v563.2z" fill="" p-id="1773"></path></svg>