<?xml version="1.0" standalone="no"?><!DOCTYPE svg PUBLIC "-//W3C//DTD SVG 1.1//EN" "http://www.w3.org/Graphics/SVG/1.1/DTD/svg11.dtd"><svg t="1536287112296" class="icon" style="" viewBox="0 0 1160 1024" version="1.1" xmlns="http://www.w3.org/2000/svg" p-id="6434" xmlns:xlink="http://www.w3.org/1999/xlink" width="226.5625" height="200"><defs><style type="text/css"></style></defs><path d="M725.195993 556.669995v41.770999a76.289999 76.289999 0 0 1-77.449999 74.549999H512.567995a76.289999 76.289999 0 0 1-77.450999-74.549999V556.669995H0v355.635996a114.289999 114.289999 0 0 0 116.030999 111.679999h928.250991a114.289999 114.289999 0 0 0 116.031999-111.679999V556.669995z m319.085997-370.429997H889.669991a19.145 19.145 0 0 1-19.434999-18.565V74.558999A76.289999 76.289999 0 0 0 792.784992 0.01H367.527996a76.289999 76.289999 0 0 0-77.449999 74.549999v93.115999a19.145 19.145 0 0 1-19.436 18.565H116.030999A114.289999 114.289999 0 0 0 0 297.919997v212.336998h435.117996v-39.16a76.289999 76.289999 0 0 1 77.449999-73.389999h135.466999a76.289999 76.289999 0 0 1 77.160999 73.389999v39.16h435.117996V297.919997a114.289999 114.289999 0 0 0-116.031999-111.679999zM773.639992 167.674998a19.145 19.145 0 0 1-19.434999 18.565H406.109996a19.145 19.145 0 0 1-19.435-18.565v-55.985999a19.145 19.145 0 0 1 19.435-18.565h348.093997a19.145 19.145 0 0 1 19.434999 18.565z m-147.359998 446.719996h-82.091999a27.267 27.267 0 0 1-27.267-27.267v-82.091999a27.267 27.267 0 0 1 27.267-27.268h81.801999a27.267 27.267 0 0 1 27.268 27.268v81.801999a27.267 27.267 0 0 1-26.978 27.557z" p-id="6435"></path></svg>