<?xml version="1.0" standalone="no"?><!DOCTYPE svg PUBLIC "-//W3C//DTD SVG 1.1//EN" "http://www.w3.org/Graphics/SVG/1.1/DTD/svg11.dtd"><svg t="1532680638938" class="icon" style="" viewBox="0 0 1024 1024" version="1.1" xmlns="http://www.w3.org/2000/svg" p-id="2018" xmlns:xlink="http://www.w3.org/1999/xlink" width="400" height="400"><defs><style type="text/css"></style></defs><path d="M680.96 0H209.92C135.68 0 74.24 56.32 74.24 128v768c0 71.68 61.44 128 135.68 128h604.16c74.24 0 135.68-56.32 135.68-128V256L680.96 0z m33.28 768H309.76c-17.92 0-33.28-15.36-33.28-30.72 0-17.92 15.36-30.72 33.28-30.72h401.92c17.92 0 33.28 12.8 33.28 30.72 2.56 17.92-12.8 30.72-30.72 30.72z m0-192H309.76c-17.92 0-33.28-15.36-33.28-30.72 0-17.92 15.36-30.72 33.28-30.72h401.92c17.92 0 33.28 15.36 33.28 30.72 2.56 17.92-12.8 30.72-30.72 30.72zM747.52 256c-38.4 0-66.56-28.16-66.56-64v-128l202.24 192h-135.68z" fill="" p-id="2019"></path></svg>