<?xml version="1.0" standalone="no"?><!DOCTYPE svg PUBLIC "-//W3C//DTD SVG 1.1//EN" "http://www.w3.org/Graphics/SVG/1.1/DTD/svg11.dtd"><svg t="1533197067690" class="icon" style="" viewBox="0 0 1024 1024" version="1.1" xmlns="http://www.w3.org/2000/svg" p-id="12390" xmlns:xlink="http://www.w3.org/1999/xlink" width="400" height="400"><defs><style type="text/css"></style></defs><path d="M256.638404 255.361596c0 91.930175 48.518703 173.645885 127.680798 222.164589 79.162095 45.965087 176.199501 45.965087 255.361596 0s127.680798-130.234414 127.680798-222.164589-48.518703-173.645885-127.680798-222.164589c-79.162095-45.965087-176.199501-45.965087-255.361596 0-76.608479 45.965087-127.680798 130.234414-127.680798 222.164589zM981.865337 686.922693c-35.750623-48.518703-102.144638-94.483791-194.074813-135.341646-5.107232-2.553616-10.214464-2.553616-15.321696 0s-7.660848 5.107232-10.214464 10.214464l-109.805486 319.201995h-51.072319V610.314214c0-5.107232-2.553616-10.214464-7.660848-15.321695l-68.947631-56.179551c-7.660848-5.107232-15.321696-5.107232-22.982544 0l-68.947631 56.179551c-5.107232 2.553616-7.660848 7.660848-7.660848 15.321695v268.129676h-51.072319L261.745636 561.795511c-2.553616-5.107232-5.107232-10.214464-10.214464-10.214464-5.107232-2.553616-10.214464-2.553616-15.321696 0-91.930175 40.857855-158.32419 84.269327-194.074813 135.341646C14.044888 725.226933 14.044888 750.763092 14.044888 755.870324v158.32419c0 58.733167 48.518703 109.805486 109.805486 109.805486h773.745636c58.733167 0 109.805486-48.518703 109.805486-109.805486v-158.32419c2.553616-2.553616 2.553616-33.197007-25.536159-68.947631z" p-id="12391"></path></svg>