<?xml version="1.0" standalone="no"?><!DOCTYPE svg PUBLIC "-//W3C//DTD SVG 1.1//EN" "http://www.w3.org/Graphics/SVG/1.1/DTD/svg11.dtd"><svg t="1536141082777" class="icon" style="" viewBox="0 0 1024 1024" version="1.1" xmlns="http://www.w3.org/2000/svg" p-id="5249" xmlns:xlink="http://www.w3.org/1999/xlink" width="200" height="200"><defs><style type="text/css"></style></defs><path d="M432.64 867.84C192 867.84 0 673.28 0 437.76 0 197.12 194.56 5.12 432.64 5.12c240.64 0 432.64 194.56 432.64 432.64 2.56 232.96-192 430.08-432.64 430.08z m0-780.8c-192 0-340.48 153.6-340.48 340.48 0 192 153.6 340.48 340.48 340.48 192 0 340.48-153.6 340.48-340.48 0-189.44-151.04-340.48-340.48-340.48z" fill="#ffffff" p-id="5250"></path><path d="M975.36 1018.88c-10.24 0-25.6-7.68-30.72-10.24L678.4 739.84c-17.92-17.92-17.92-46.08 0-64s46.08-17.92 64 0l266.24 266.24c17.92 17.92 17.92 46.08 0 64-5.12 12.8-20.48 12.8-33.28 12.8z" fill="#ffffff" p-id="5251"></path></svg>